<svg xmlns="http://www.w3.org/2000/svg" width="442" height="568" fill="currentColor" viewBox="0 0 442 568">
  <path
    d="M318.214 0H141.429c-19.557 0-35.358 15.864-35.358 35.5S121.872 71 141.429 71v147.325c0 13.091-3.647 26.07-10.497 37.164L11.381 450.628C3.978 462.831 0 476.698 0 491.009 0 533.498 34.363 568 76.68 568h341.64c42.317 0 76.68-34.502 76.68-76.991 0-14.2-3.978-28.178-11.381-40.381L364.068 255.6c-6.85-11.205-10.497-24.073-10.497-37.164V71c19.557 0 35.358-15.864 35.358-35.5S373.128 0 353.571 0h-35.357ZM212.143 218.325V71h70.714v147.325c0 26.292 7.293 52.03 20.993 74.439L341.97 355H153.03l38.12-62.236c13.7-22.409 20.993-48.147 20.993-74.439Z" />
</svg>