<svg width="626" height="721" fill="none" version="1.1" viewBox="0 0 626 721" xmlns="http://www.w3.org/2000/svg">
  <path
    d="m377.14 219.62c10.709-2.995 18.605-11.93 19.009-23.006 0.167-6.707 0.07-13.41-0.446-20.056l-0.639-7.217a204.71 204.71 0 0 0-3.243-20.229c-2.328-10.833-11.778-18.509-22.883-19.928l-34.747-4.55c-7.077-14.619-16.658-28.375-28.339-40.181l7.844-33.415c2.575-10.687-1.455-22.07-10.957-27.98-6.608-4.282-13.571-8.092-20.839-11.534l-0.748-0.354a201.72 201.72 0 0 0-22.078-8.92c-10.592-3.608-22.002 0.59-28.589 9.249l-20.933 27.344c-16.692-1.504-33.248-0.255-49.043 3.53l-25.691-23.946c-8.133-7.693-20.059-10.141-29.916-5.079-6.069 3.143-12.023 6.597-17.813 10.257l-5.831 4.023c-5.47 3.812-10.717 7.984-15.85 12.467-8.263 7.225-10.174 18.995-5.755 29.282l13.92 31.944a145.9 145.9 0 0 0-12.119 20.892 148.34 148.34 0 0 0-8.535 22.716l-33.534 9.468c-10.709 2.994-18.605 11.93-19.01 23.006-0.166 6.706-0.07 13.41 0.397 20.161l0.631 6.956c0.68 6.852 1.83 13.542 3.35 20.28 2.328 10.833 11.778 18.51 22.883 19.928l34.747 4.55c7.078 14.619 16.658 28.375 28.34 40.181l-7.894 33.52c-2.575 10.687 1.455 22.071 10.957 27.979a207.66 207.66 0 0 0 21.209 11.582 207.76 207.76 0 0 0 22.398 9.072c10.592 3.608 22.002-0.59 28.59-9.249l20.933-27.344c16.691 1.504 33.247 0.255 49.042-3.531l25.535 24.001c8.133 7.693 20.059 10.141 29.916 5.078 6.069-3.143 11.973-6.492 17.706-10.307l5.988-4.077c5.469-3.812 10.716-7.984 15.8-12.362 8.263-7.225 10.174-18.996 5.755-29.283l-13.92-31.944a148.36 148.36 0 0 0 12.168-20.996 148.25 148.25 0 0 0 8.535-22.716l33.535-9.468 0.164 0.206zm-230.18-56.91c6.306-13.313 17.758-23.521 31.838-28.377 14.079-4.857 29.633-3.965 43.24 2.479 13.606 6.444 24.15 17.913 29.313 31.884 5.163 13.97 4.521 29.298-1.785 42.611-6.305 13.313-17.757 23.52-31.837 28.377s-29.634 3.965-43.24-2.479c-13.606-6.445-24.151-17.914-29.313-31.884-5.163-13.971-4.521-29.298 1.784-42.611zm259 538.14c3.217 10.614 12.411 18.554 23.649 19.139 6.804 0.278 13.6 0.296 20.331-0.101l7.307-0.508a210.05 210.05 0 0 0 20.459-2.858c10.946-2.113 18.571-11.305 19.822-22.236l4.027-34.198c14.706-6.735 28.493-15.953 40.268-27.276l34.124 8.351c10.881 2.721 22.357-1.062 28.188-10.335a194.98 194.98 0 0 0 11.387-20.726 194.78 194.78 0 0 0 8.821-21.941c3.48-10.387-0.97-21.713-9.862-28.357l-28.031-21.215a147.05 147.05 0 0 0-4.409-48.436l23.907-24.783c7.665-7.893 9.945-19.616 4.646-29.424-3.29-6.039-6.893-11.971-10.702-17.744l-4.178-5.82c-3.958-5.459-8.277-10.706-12.91-15.845-7.466-8.273-19.434-10.357-29.791-6.171l-32.158 13.192a158.36 158.36 0 0 0-21.496-12.358 158.31 158.31 0 0 0-23.18-8.802l-10.167-33.239c-3.217-10.614-12.412-18.553-23.65-19.139-6.804-0.277-13.6-0.295-20.437 0.051l-7.044 0.505c-6.937 0.555-13.702 1.577-20.508 2.962-10.946 2.114-18.572 11.306-19.823 22.236l-4.027 34.198c-14.705 6.735-28.493 15.953-40.268 27.277l-34.074-8.457c-10.881-2.721-22.357 1.063-28.188 10.336a194.71 194.71 0 0 0-11.387 20.726 194.7 194.7 0 0 0-8.821 21.941c-3.48 10.387 0.97 21.713 9.862 28.357l28.081 21.11a147.02 147.02 0 0 0 4.408 48.436l-23.907 24.783c-7.664 7.893-9.945 19.616-4.645 29.424 3.29 6.039 6.785 11.92 10.75 17.639l4.237 5.976c3.957 5.459 8.277 10.706 12.802 15.794 7.466 8.273 19.434 10.357 29.791 6.171l32.158-13.192a158.32 158.32 0 0 0 21.496 12.358 158.28 158.28 0 0 0 23.181 8.802l10.167 33.239-0.206 0.158zm53.825-226.09a57.858 57.858 0 0 1 17.823 13.12 56.868 56.868 0 0 1 11.49 18.764 55.467 55.467 0 0 1 3.408 21.552 54.502 54.502 0 0 1-5.192 21.059 54.514 54.514 0 0 1-13.004 17.36 55.468 55.468 0 0 1-18.834 11.017 56.848 56.848 0 0 1-21.797 2.998 57.846 57.846 0 0 1-21.443-5.477 57.858 57.858 0 0 1-17.823-13.12 56.868 56.868 0 0 1-11.49-18.764 55.467 55.467 0 0 1-3.408-21.552 54.502 54.502 0 0 1 5.192-21.059 54.514 54.514 0 0 1 13.004-17.36 55.468 55.468 0 0 1 18.834-11.017 56.848 56.848 0 0 1 21.797-2.998 57.846 57.846 0 0 1 21.443 5.477z"
    fill="url(#a)" />
  <defs>
    <linearGradient id="a" x1="756.54" x2="69.004" y1="564.35" y2="645.31" gradientUnits="userSpaceOnUse">
      <stop stopColor="#0798F2" stop-opacity=".8" offset="0" />
      <stop stopColor="#1C3659" offset="1" />
    </linearGradient>
  </defs>
</svg>