<svg xmlns="http://www.w3.org/2000/svg" width="321" height="196" fill="none" viewBox="0 0 321 196">
<defs>
    <linearGradient id="a" x1="63.193" x2="27.72" y1="25.013" y2=".502" gradientUnits="userSpaceOnUse">
      <stop offset=".238" stop-color="#00B9FF"/>
      <stop offset="1" stop-color="#0FF"/>
    </linearGradient>
    <linearGradient id="b" x1="86.376" x2="-12.89" y1="52.408" y2="149.093" gradientUnits="userSpaceOnUse">
      <stop offset=".238" stop-color="#00B9FF"/>
      <stop offset="1" stop-color="#0FF"/>
    </linearGradient>
    <linearGradient id="c" x1="116.736" x2="55.692" y1="151.128" y2="33.383" gradientUnits="userSpaceOnUse">
      <stop offset=".238" stop-color="#00B9FF"/>
      <stop offset="1" stop-color="#0FF"/>
    </linearGradient>
    <linearGradient id="d" x1="113.372" x2="112.697" y1="151.128" y2="131.982" gradientUnits="userSpaceOnUse">
      <stop offset=".238" stop-color="#00B9FF"/>
      <stop offset="1" stop-color="#0FF"/>
    </linearGradient>
    <linearGradient id="e" x1="226.567" x2="195.311" y1="113.984" y2="77.831" gradientUnits="userSpaceOnUse">
      <stop offset=".238" stop-color="#00B9FF"/>
      <stop offset="1" stop-color="#0FF"/>
    </linearGradient>
    <linearGradient id="f" x1="248.81" x2="236.239" y1="135.325" y2="121.512" gradientUnits="userSpaceOnUse">
      <stop offset=".238" stop-color="#00B9FF"/>
      <stop offset="1" stop-color="#0FF"/>
    </linearGradient>
    <linearGradient id="g" x1="260.236" x2="243.986" y1="103.484" y2="101.048" gradientUnits="userSpaceOnUse">
      <stop offset=".238" stop-color="#00B9FF"/>
      <stop offset="1" stop-color="#0FF"/>
    </linearGradient>
    <linearGradient id="h" x1="287.814" x2="229.15" y1="152.646" y2="80.121" gradientUnits="userSpaceOnUse">
      <stop offset=".238" stop-color="#00B9FF"/>
      <stop offset="1" stop-color="#0FF"/>
    </linearGradient>
    <linearGradient id="i" x1="262.843" x2="320.483" y1="148.213" y2="104.263" gradientUnits="userSpaceOnUse">
      <stop offset=".238" stop-color="#00B9FF"/>
      <stop offset="1" stop-color="#0FF"/>
    </linearGradient>
  </defs>
  <path fill="url(#a)" d="M55.692 30.752c.584-.14 1.165-.295 1.752-.421a70.268 70.268 0 0 1 10.169-1.414c.209-.014.418-.014.627-.025V.5H11.688v11h44.003l.001 19.252Z"/>
  <path fill="url(#b)" d="M68.24 45.504c-4.66.408-8.365 1.193-12.547 2.681V158.03c0 11.67-3.263 19.955-10.563 23.886-.499.269-20.853 11.03-37.739-12.198L0 178.312c.444.687.906 1.354 1.386 2.003C9.502 191.277 22.111 195.5 33.174 195.5c6.629 0 12.972-1.04 18.343-3.693 15.41-7.613 16.722-25.261 16.722-34.294v-17.92l.002-94.09Z"/>
  <path fill="url(#c)" d="M72.736 31.342c-.645 0-1.278.026-1.915.041-.482.012-.97.011-1.448.032-.38.017-.753.052-1.132.074-.724.043-1.451.08-2.166.144a69.99 69.99 0 0 0-3.233.362 67.25 67.25 0 0 0-3.17.508c-1.046.193-2.08.41-3.104.652-.295.07-.582.155-.874.229-.726.182-1.452.362-2.167.569-.14.04-.277.09-.417.132-.86.255-1.714.52-2.558.81-.981.34-1.952.702-2.912 1.089a63.108 63.108 0 0 0-5.576 2.47 61.293 61.293 0 0 0-5.21 2.944 59.163 59.163 0 0 0-4.845 3.416 58.785 58.785 0 0 0-4.48 3.889 59.876 59.876 0 0 0-3.985 4.308 59.046 59.046 0 0 0-5.133 7.147 61.288 61.288 0 0 0-2.858 5.22 66.037 66.037 0 0 0-1.26 2.748 57.744 57.744 0 0 0-2.03 5.715 59.705 59.705 0 0 0-1.45 5.974 63.499 63.499 0 0 0-.508 3.083 66.257 66.257 0 0 0-.363 3.147 73.342 73.342 0 0 0 0 12.977c.097 1.061.218 2.111.363 3.149a63.406 63.406 0 0 0 1.16 6.102 59.5 59.5 0 0 0 1.74 5.844c.339.953.701 1.894 1.088 2.825a64.525 64.525 0 0 0 2.633 5.404 59.562 59.562 0 0 0 10.604 14.019 57.968 57.968 0 0 0 6.752 5.681 58.972 58.972 0 0 0 4.984 3.223 62.806 62.806 0 0 0 5.371 2.772c.928.424 1.87.829 2.83 1.216.96.372 1.931.722 2.913 1.047a62.6 62.6 0 0 0 2.698.824c.006-4.105 0-8.21.003-12.315-.037-.015-.075-.026-.112-.041a53.376 53.376 0 0 1-4.49-2.073 50.298 50.298 0 0 1-6.173-3.796 48.843 48.843 0 0 1-1.906-1.446 48.81 48.81 0 0 1-3.59-3.17 52.557 52.557 0 0 1-3.254-3.567 51.47 51.47 0 0 1-5.415-7.906 53.2 53.2 0 0 1-2.159-4.341 46.99 46.99 0 0 1-1.654-4.662 48.808 48.808 0 0 1-1.182-4.877 52.222 52.222 0 0 1-.709-5.092 57.059 57.059 0 0 1-.177-2.628 60.225 60.225 0 0 1 .177-7.977 50.87 50.87 0 0 1 1.24-7.5 47.16 47.16 0 0 1 1.419-4.707c.276-.764.571-1.518.886-2.263a52.287 52.287 0 0 1 2.16-4.405 48.361 48.361 0 0 1 8.669-11.409A46.83 46.83 0 0 1 40.4 53.72a45.615 45.615 0 0 1 5.946-4.085 46.988 46.988 0 0 1 4.34-2.212 49.69 49.69 0 0 1 2.283-.955c.045-.018.092-.033.137-.051.73-.295 1.464-.575 2.207-.835.126-.044.255-.08.38-.122a49.745 49.745 0 0 1 2.013-.646 50.361 50.361 0 0 1 4.932-1.182 54.995 54.995 0 0 1 5.124-.709c.158-.014.32-.02.48-.033a58.15 58.15 0 0 1 2.155-.144c.14-.007.283-.004.424-.01a62.451 62.451 0 0 1 2.258-.048c1.72 0 3.41.07 5.071.214a54.44 54.44 0 0 1 4.899.644c1.604.287 3.18.646 4.727 1.075 1.547.43 3.065.93 4.555 1.504a39.655 39.655 0 0 1 4.372 1.902 41.068 41.068 0 0 1 4.179 2.438 44.897 44.897 0 0 1 3.986 2.975 50.08 50.08 0 0 1 3.792 3.514l8.078-8.079a47.457 47.457 0 0 0-8.808-7.65 49.074 49.074 0 0 0-7.792-4.27 54.129 54.129 0 0 0-2.823-1.144 64.496 64.496 0 0 0-8.854-2.723 66.223 66.223 0 0 0-6.146-1.117 69.693 69.693 0 0 0-6.338-.558 74.666 74.666 0 0 0-3.241-.07Z"/>
  <path fill="url(#d)" d="M70.82 142.287v3.398c-.018 2.649.02 5.325.026 8.006.572.013 1.14.036 1.717.036a75.842 75.842 0 0 0 6.512-.28 69.86 69.86 0 0 0 6.294-.837 67.145 67.145 0 0 0 6.081-1.397 63.254 63.254 0 0 0 5.865-1.956c.96-.372 1.9-.767 2.823-1.184a51.493 51.493 0 0 0 5.308-2.771 50.1 50.1 0 0 0 4.856-3.309 48.914 48.914 0 0 0 4.405-3.846 49.829 49.829 0 0 0 2.032-2.125l-8.079-8.079c-.616.631-1.24 1.24-1.872 1.827a49.353 49.353 0 0 1-3.889 3.266c-.664.501-1.337.98-2.017 1.439a44.15 44.15 0 0 1-4.178 2.492 42.207 42.207 0 0 1-4.373 1.977 49.615 49.615 0 0 1-4.555 1.504 51.19 51.19 0 0 1-4.727 1.074 54.182 54.182 0 0 1-4.898.645 59.127 59.127 0 0 1-5.071.215c-.767 0-1.504-.068-2.26-.095Z"/>
  <path fill="url(#e)" d="M218.935 149.667v-12.063c-13.377 5.581-28.056 3.721-42.161 4.057h-16.413v-98.32c13.807.11 27.626-.244 41.425.224 16.731 1.037 33.554 10.087 41.321 25.336h13.675c-7.63-20.032-27.741-33.273-48.59-35.805-12.035-1.309-24.169-.553-36.253-.755h-24.296v120.322c18.295-.099 36.599.213 54.885-.185 5.546-.358 11.072-1.235 16.407-2.811Z"/>
  <path fill="url(#f)" d="M256.119 117.663h-13.87c-2.118 3.742-4.82 7.153-7.935 10.115v14.88c1.039-.373 1.945-1.202 2.902-1.793 8.254-5.818 14.923-13.911 18.903-23.202Z"/>
  <path fill="url(#g)" d="M247.494 81.48c1.155 5.783 1.304 11.75.684 17.608-.229 2.057-.569 4.103-1.071 6.112 4.28-.002 8.566.003 12.842-.003a65.348 65.348 0 0 0 1.097-11.077c.121-4.225-.121-8.472-.839-12.64h-12.713Z"/>
  <path fill="url(#h)" d="M221.517 71.482v81.179h58.432l-2.796-7.421h-45.415v-30.153h33.853l-2.533-7.306h-31.32V78.905h56.077v-7.423h-66.298Z"/>
  <path fill="url(#i)" d="m313.077 71.482-26.63 70.647.001.005c-.001 0 .001 0 0 0l-.001-.005-22.703-60.65h-.924c1.03 6.9 1.085 13.13.377 19.439l1.613 4.282 17.88 47.459 7.201.002 30.584-81.182-7.398.003Z"/>
</svg>
