<?xml version="1.0" encoding="UTF-8" standalone="no"?>
<!-- Created with Inkscape (http://www.inkscape.org/) -->

<svg
   width="32"
   height="32"
   viewBox="0 0 8.4666666 8.4666666"
   version="1.1"
   id="svg1"
   xml:space="preserve"
   inkscape:version="1.3.2 (091e20e, 2023-11-25, custom)"
   sodipodi:docname="favicon.svg"
   xmlns:inkscape="http://www.inkscape.org/namespaces/inkscape"
   xmlns:sodipodi="http://sodipodi.sourceforge.net/DTD/sodipodi-0.dtd"
   xmlns="http://www.w3.org/2000/svg"
   xmlns:svg="http://www.w3.org/2000/svg"><sodipodi:namedview
     id="namedview1"
     pagecolor="#ffffff"
     bordercolor="#999999"
     borderopacity="1"
     inkscape:showpageshadow="0"
     inkscape:pageopacity="0"
     inkscape:pagecheckerboard="0"
     inkscape:deskcolor="#d1d1d1"
     inkscape:document-units="mm"
     inkscape:zoom="11.573962"
     inkscape:cx="13.003326"
     inkscape:cy="24.192235"
     inkscape:current-layer="layer1" /><defs
     id="defs1"><linearGradient
       id="a"
       x1="63.193001"
       x2="27.719999"
       y1="25.013"
       y2="0.50199997"
       gradientUnits="userSpaceOnUse"><stop
         offset=".238"
         stop-color="#00B9FF"
         id="stop9" /><stop
         offset="1"
         stop-color="#0FF"
         id="stop10" /></linearGradient><linearGradient
       id="b"
       x1="86.375999"
       x2="-12.89"
       y1="52.408001"
       y2="149.093"
       gradientUnits="userSpaceOnUse"><stop
         offset=".238"
         stop-color="#00B9FF"
         id="stop11" /><stop
         offset="1"
         stop-color="#0FF"
         id="stop12" /></linearGradient><linearGradient
       id="c"
       x1="116.736"
       x2="55.692001"
       y1="151.12801"
       y2="33.382999"
       gradientUnits="userSpaceOnUse"><stop
         offset=".238"
         stop-color="#00B9FF"
         id="stop13" /><stop
         offset="1"
         stop-color="#0FF"
         id="stop14" /></linearGradient><linearGradient
       id="d"
       x1="113.372"
       x2="112.697"
       y1="151.12801"
       y2="131.98199"
       gradientUnits="userSpaceOnUse"><stop
         offset=".238"
         stop-color="#00B9FF"
         id="stop15" /><stop
         offset="1"
         stop-color="#0FF"
         id="stop16" /></linearGradient><linearGradient
       id="e"
       x1="226.567"
       x2="195.311"
       y1="113.984"
       y2="77.831001"
       gradientUnits="userSpaceOnUse"><stop
         offset=".238"
         stop-color="#00B9FF"
         id="stop17" /><stop
         offset="1"
         stop-color="#0FF"
         id="stop18" /></linearGradient><linearGradient
       id="f"
       x1="248.81"
       x2="236.239"
       y1="135.325"
       y2="121.512"
       gradientUnits="userSpaceOnUse"><stop
         offset=".238"
         stop-color="#00B9FF"
         id="stop19" /><stop
         offset="1"
         stop-color="#0FF"
         id="stop20" /></linearGradient><linearGradient
       id="g"
       x1="260.23599"
       x2="243.98599"
       y1="103.484"
       y2="101.048"
       gradientUnits="userSpaceOnUse"><stop
         offset=".238"
         stop-color="#00B9FF"
         id="stop21" /><stop
         offset="1"
         stop-color="#0FF"
         id="stop22" /></linearGradient><linearGradient
       id="h"
       x1="287.814"
       x2="229.14999"
       y1="152.646"
       y2="80.121002"
       gradientUnits="userSpaceOnUse"><stop
         offset=".238"
         stop-color="#00B9FF"
         id="stop23" /><stop
         offset="1"
         stop-color="#0FF"
         id="stop24" /></linearGradient><linearGradient
       id="i"
       x1="262.84299"
       x2="320.483"
       y1="148.213"
       y2="104.263"
       gradientUnits="userSpaceOnUse"><stop
         offset=".238"
         stop-color="#00B9FF"
         id="stop25" /><stop
         offset="1"
         stop-color="#0FF"
         id="stop26" /></linearGradient></defs><g
     inkscape:label="Layer 1"
     inkscape:groupmode="layer"
     id="layer1"><g
       id="g2"
       transform="matrix(0.0998517,0,0,0.0998517,-6.2667775,-10.59464)"><g
         style="fill:none"
         id="g1"
         transform="matrix(0.26458333,0,0,0.26458333,62.760848,122.57083)"><path
           fill="url(#a)"
           d="m 55.692,30.752 c 0.584,-0.14 1.165,-0.295 1.752,-0.421 a 70.268,70.268 0 0 1 10.169,-1.414 c 0.209,-0.014 0.418,-0.014 0.627,-0.025 V 0.5 H 11.688 v 11 h 44.003 z"
           id="path1"
           style="fill:url(#a)" /><path
           fill="url(#b)"
           d="m 68.24,45.504 c -4.66,0.408 -8.365,1.193 -12.547,2.681 V 158.03 c 0,11.67 -3.263,19.955 -10.563,23.886 -0.499,0.269 -20.853,11.03 -37.739,-12.198 L 0,178.312 c 0.444,0.687 0.906,1.354 1.386,2.003 8.116,10.962 20.725,15.185 31.788,15.185 6.629,0 12.972,-1.04 18.343,-3.693 15.41,-7.613 16.722,-25.261 16.722,-34.294 v -17.92 l 0.002,-94.09 z"
           id="path2"
           style="fill:url(#b)" /><path
           fill="url(#c)"
           d="m 72.736,31.342 c -0.645,0 -1.278,0.026 -1.915,0.041 -0.482,0.012 -0.97,0.011 -1.448,0.032 -0.38,0.017 -0.753,0.052 -1.132,0.074 -0.724,0.043 -1.451,0.08 -2.166,0.144 a 69.99,69.99 0 0 0 -3.233,0.362 67.25,67.25 0 0 0 -3.17,0.508 c -1.046,0.193 -2.08,0.41 -3.104,0.652 -0.295,0.07 -0.582,0.155 -0.874,0.229 -0.726,0.182 -1.452,0.362 -2.167,0.569 -0.14,0.04 -0.277,0.09 -0.417,0.132 -0.86,0.255 -1.714,0.52 -2.558,0.81 -0.981,0.34 -1.952,0.702 -2.912,1.089 a 63.108,63.108 0 0 0 -5.576,2.47 61.293,61.293 0 0 0 -5.21,2.944 59.163,59.163 0 0 0 -4.845,3.416 58.785,58.785 0 0 0 -4.48,3.889 59.876,59.876 0 0 0 -3.985,4.308 59.046,59.046 0 0 0 -5.133,7.147 61.288,61.288 0 0 0 -2.858,5.22 66.037,66.037 0 0 0 -1.26,2.748 57.744,57.744 0 0 0 -2.03,5.715 59.705,59.705 0 0 0 -1.45,5.974 63.499,63.499 0 0 0 -0.508,3.083 66.257,66.257 0 0 0 -0.363,3.147 73.342,73.342 0 0 0 0,12.977 c 0.097,1.061 0.218,2.111 0.363,3.149 a 63.406,63.406 0 0 0 1.16,6.102 59.5,59.5 0 0 0 1.74,5.844 c 0.339,0.953 0.701,1.894 1.088,2.825 a 64.525,64.525 0 0 0 2.633,5.404 59.562,59.562 0 0 0 10.604,14.019 57.968,57.968 0 0 0 6.752,5.681 58.972,58.972 0 0 0 4.984,3.223 62.806,62.806 0 0 0 5.371,2.772 c 0.928,0.424 1.87,0.829 2.83,1.216 0.96,0.372 1.931,0.722 2.913,1.047 a 62.6,62.6 0 0 0 2.698,0.824 c 0.006,-4.105 0,-8.21 0.003,-12.315 -0.037,-0.015 -0.075,-0.026 -0.112,-0.041 a 53.376,53.376 0 0 1 -4.49,-2.073 50.298,50.298 0 0 1 -6.173,-3.796 48.843,48.843 0 0 1 -1.906,-1.446 48.81,48.81 0 0 1 -3.59,-3.17 52.557,52.557 0 0 1 -3.254,-3.567 51.47,51.47 0 0 1 -5.415,-7.906 53.2,53.2 0 0 1 -2.159,-4.341 46.99,46.99 0 0 1 -1.654,-4.662 48.808,48.808 0 0 1 -1.182,-4.877 52.222,52.222 0 0 1 -0.709,-5.092 57.059,57.059 0 0 1 -0.177,-2.628 60.225,60.225 0 0 1 0.177,-7.977 50.87,50.87 0 0 1 1.24,-7.5 47.16,47.16 0 0 1 1.419,-4.707 c 0.276,-0.764 0.571,-1.518 0.886,-2.263 a 52.287,52.287 0 0 1 2.16,-4.405 48.361,48.361 0 0 1 8.669,-11.409 46.83,46.83 0 0 1 3.589,-3.233 45.615,45.615 0 0 1 5.946,-4.085 46.988,46.988 0 0 1 4.34,-2.212 49.69,49.69 0 0 1 2.283,-0.955 c 0.045,-0.018 0.092,-0.033 0.137,-0.051 0.73,-0.295 1.464,-0.575 2.207,-0.835 0.126,-0.044 0.255,-0.08 0.38,-0.122 a 49.745,49.745 0 0 1 2.013,-0.646 50.361,50.361 0 0 1 4.932,-1.182 54.995,54.995 0 0 1 5.124,-0.709 c 0.158,-0.014 0.32,-0.02 0.48,-0.033 a 58.15,58.15 0 0 1 2.155,-0.144 c 0.14,-0.007 0.283,-0.004 0.424,-0.01 a 62.451,62.451 0 0 1 2.258,-0.048 c 1.72,0 3.41,0.07 5.071,0.214 a 54.44,54.44 0 0 1 4.899,0.644 c 1.604,0.287 3.18,0.646 4.727,1.075 1.547,0.43 3.065,0.93 4.555,1.504 a 39.655,39.655 0 0 1 4.372,1.902 41.068,41.068 0 0 1 4.179,2.438 44.897,44.897 0 0 1 3.986,2.975 50.08,50.08 0 0 1 3.792,3.514 l 8.078,-8.079 a 47.457,47.457 0 0 0 -8.808,-7.65 49.074,49.074 0 0 0 -7.792,-4.27 54.129,54.129 0 0 0 -2.823,-1.144 64.496,64.496 0 0 0 -8.854,-2.723 66.223,66.223 0 0 0 -6.146,-1.117 69.693,69.693 0 0 0 -6.338,-0.558 74.666,74.666 0 0 0 -3.241,-0.07 z"
           id="path3"
           style="fill:url(#c)" /><path
           fill="url(#d)"
           d="m 70.82,142.287 v 3.398 c -0.018,2.649 0.02,5.325 0.026,8.006 0.572,0.013 1.14,0.036 1.717,0.036 a 75.842,75.842 0 0 0 6.512,-0.28 69.86,69.86 0 0 0 6.294,-0.837 67.145,67.145 0 0 0 6.081,-1.397 63.254,63.254 0 0 0 5.865,-1.956 c 0.96,-0.372 1.9,-0.767 2.823,-1.184 a 51.493,51.493 0 0 0 5.308,-2.771 50.1,50.1 0 0 0 4.856,-3.309 48.914,48.914 0 0 0 4.405,-3.846 49.829,49.829 0 0 0 2.032,-2.125 l -8.079,-8.079 c -0.616,0.631 -1.24,1.24 -1.872,1.827 a 49.353,49.353 0 0 1 -3.889,3.266 c -0.664,0.501 -1.337,0.98 -2.017,1.439 a 44.15,44.15 0 0 1 -4.178,2.492 42.207,42.207 0 0 1 -4.373,1.977 49.615,49.615 0 0 1 -4.555,1.504 51.19,51.19 0 0 1 -4.727,1.074 54.182,54.182 0 0 1 -4.898,0.645 59.127,59.127 0 0 1 -5.071,0.215 c -0.767,0 -1.504,-0.068 -2.26,-0.095 z"
           id="path4"
           style="fill:url(#d)" /><path
           fill="url(#e)"
           d="m 218.935,149.667 v -12.063 c -13.377,5.581 -28.056,3.721 -42.161,4.057 h -16.413 v -98.32 c 13.807,0.11 27.626,-0.244 41.425,0.224 16.731,1.037 33.554,10.087 41.321,25.336 h 13.675 c -7.63,-20.032 -27.741,-33.273 -48.59,-35.805 -12.035,-1.309 -24.169,-0.553 -36.253,-0.755 h -24.296 v 120.322 c 18.295,-0.099 36.599,0.213 54.885,-0.185 5.546,-0.358 11.072,-1.235 16.407,-2.811 z"
           id="path5"
           style="fill:url(#e)" /><path
           fill="url(#f)"
           d="m 256.119,117.663 h -13.87 c -2.118,3.742 -4.82,7.153 -7.935,10.115 v 14.88 c 1.039,-0.373 1.945,-1.202 2.902,-1.793 8.254,-5.818 14.923,-13.911 18.903,-23.202 z"
           id="path6"
           style="fill:url(#f)" /><path
           fill="url(#g)"
           d="m 247.494,81.48 c 1.155,5.783 1.304,11.75 0.684,17.608 -0.229,2.057 -0.569,4.103 -1.071,6.112 4.28,-0.002 8.566,0.003 12.842,-0.003 a 65.348,65.348 0 0 0 1.097,-11.077 c 0.121,-4.225 -0.121,-8.472 -0.839,-12.64 z"
           id="path7"
           style="fill:url(#g)" /><path
           fill="url(#h)"
           d="m 221.517,71.482 v 81.179 h 58.432 l -2.796,-7.421 h -45.415 v -30.153 h 33.853 l -2.533,-7.306 h -31.32 V 78.905 h 56.077 v -7.423 z"
           id="path8"
           style="fill:url(#h)" /><path
           fill="url(#i)"
           d="m 313.077,71.482 -26.63,70.647 10e-4,0.005 c -10e-4,0 0.001,0 0,0 l -10e-4,-0.005 -22.703,-60.65 h -0.924 c 1.03,6.9 1.085,13.13 0.377,19.439 l 1.613,4.282 17.88,47.459 7.201,0.002 30.584,-81.182 z"
           id="path9"
           style="fill:url(#i)" /></g></g></g></svg>
